<svg width="495" height="500" viewBox="0 0 495 500" fill="none" xmlns="http://www.w3.org/2000/svg">
<g clip-path="url(#clip0)">
<path d="M25.215 121.853C56.2288 62.2276 113.726 17.1058 185.511 10.775C234.297 6.40093 284.477 20.6741 323.389 50.2565C343.019 65.2204 360.327 84.2129 371.943 105.968C385.184 130.946 389.018 159.723 402.724 184.586C419.683 215.549 451.626 228.211 472.999 254.916C490.655 276.901 496.695 306.368 494.604 334.454C490.887 385.562 460.686 434.137 416.198 460.381C378.563 482.481 333.262 488.697 289.587 486.625C222.217 483.517 155.194 461.532 102.111 420.209C49.1433 379.116 10.9277 318.109 1.86752 251.923C-4.17262 206.916 4.65528 161.219 25.215 121.853Z" fill="#5840BB" fill-opacity="0.1"/>
<path d="M4.64575 144.605C6.03946 150.059 5.34261 140.079 8.01389 127.777C10.6852 115.591 15.3309 120.465 15.3309 120.465" stroke="#191440" stroke-miterlimit="10" stroke-linecap="round" stroke-linejoin="round"/>
<path d="M3.83276 132.071L12.3112 128.705" stroke="#191440" stroke-miterlimit="10" stroke-linecap="round" stroke-linejoin="round"/>
<path d="M19.2797 124.527C19.2797 124.527 14.2856 134.972 21.8349 139.382" stroke="#191440" stroke-miterlimit="10" stroke-linecap="round" stroke-linejoin="round"/>
<path d="M26.3645 121.626C26.3645 121.626 34.7268 126.268 29.5004 136.249" stroke="#191440" stroke-miterlimit="10" stroke-linecap="round" stroke-linejoin="round"/>
<path d="M20.6735 128.009L26.5967 132.419" stroke="#191440" stroke-miterlimit="10" stroke-linecap="round" stroke-linejoin="round"/>
<path d="M25.3192 126.152L20.6735 133.579" stroke="#191440" stroke-miterlimit="10" stroke-linecap="round" stroke-linejoin="round"/>
<path d="M52.1237 237.262C53.2557 230.368 48.5802 223.862 41.6808 222.731C34.7814 221.6 28.2708 226.272 27.1388 233.166C26.0069 240.06 30.6823 246.566 37.5817 247.697C44.4811 248.828 50.9917 244.156 52.1237 237.262Z" stroke="#191440" stroke-miterlimit="10" stroke-linecap="round" stroke-linejoin="round"/>
<path d="M59.6151 253.878C67.2182 252.319 72.117 244.897 70.5569 237.299C68.9969 229.702 61.5687 224.807 53.9657 226.366C46.3626 227.925 41.4638 235.347 43.0238 242.944C44.5838 250.542 52.012 255.437 59.6151 253.878Z" stroke="#191440" stroke-miterlimit="10" stroke-linecap="round" stroke-linejoin="round"/>
<path d="M51.1028 230.021L45.2957 232.11" stroke="#191440" stroke-miterlimit="10" stroke-linecap="round" stroke-linejoin="round"/>
<path d="M51.9159 232.458L43.5536 235.476" stroke="#191440" stroke-miterlimit="10" stroke-linecap="round" stroke-linejoin="round"/>
<path d="M52.2642 235.244L42.8567 238.841" stroke="#191440" stroke-miterlimit="10" stroke-linecap="round" stroke-linejoin="round"/>
<path d="M51.5674 239.306L43.089 243.135" stroke="#191440" stroke-miterlimit="10" stroke-linecap="round" stroke-linejoin="round"/>
<path d="M50.0576 242.323L43.5536 244.992" stroke="#191440" stroke-miterlimit="10" stroke-linecap="round" stroke-linejoin="round"/>
<path d="M45.7603 215.978C45.4119 214.934 41.2307 214.122 41.1146 217.139C40.8823 220.156 45.4119 217.603 46.6894 215.978C46.6894 215.978 44.3666 219.112 45.2957 219.692" stroke="#191440" stroke-miterlimit="10" stroke-linecap="round" stroke-linejoin="round"/>
<path d="M68.408 219.692L64.8076 227.236C64.8076 227.236 66.6659 223.406 68.6403 223.754C71.0793 224.218 69.4533 228.164 66.5498 226.655" stroke="#191440" stroke-miterlimit="10" stroke-linecap="round" stroke-linejoin="round"/>
<path d="M465.384 343.407L471.075 348.862" stroke="#191440" stroke-miterlimit="10" stroke-linecap="round" stroke-linejoin="round"/>
<path d="M471.075 342.014L466.313 349.21" stroke="#191440" stroke-miterlimit="10" stroke-linecap="round" stroke-linejoin="round"/>
<path d="M476.766 344.103L482.457 342.014" stroke="#191440" stroke-miterlimit="10" stroke-linecap="round" stroke-linejoin="round"/>
<path d="M485.244 335.979L488.728 339.113" stroke="#191440" stroke-miterlimit="10" stroke-linecap="round" stroke-linejoin="round"/>
<path d="M491.4 332.266L486.986 347.469" stroke="#191440" stroke-miterlimit="10" stroke-linecap="round" stroke-linejoin="round"/>
<path d="M224.039 258.455L239.486 247.894L259.927 249.286L261.205 275.166L246.222 285.844L227.756 284.451L224.039 258.455Z" stroke="#191440" stroke-miterlimit="10" stroke-linecap="round" stroke-linejoin="round"/>
<path d="M227.756 284.451L242.622 273.774L261.205 275.167" stroke="#191440" stroke-miterlimit="10" stroke-linecap="round" stroke-linejoin="round"/>
<path d="M242.622 273.774L239.486 247.894" stroke="#191440" stroke-miterlimit="10" stroke-linecap="round" stroke-linejoin="round"/>
<path d="M224.039 258.454L244.48 260.776L259.927 249.286" stroke="#191440" stroke-miterlimit="10" stroke-linecap="round" stroke-linejoin="round"/>
<path d="M244.48 260.776L246.222 285.844" stroke="#191440" stroke-miterlimit="10" stroke-linecap="round" stroke-linejoin="round"/>
<path d="M403.944 171.529L397.092 192.767L418.346 189.866L403.944 171.529Z" stroke="#191440" stroke-miterlimit="10" stroke-linecap="round" stroke-linejoin="round"/>
<path d="M403.944 171.529L407.777 191.259" stroke="#191440" stroke-miterlimit="10" stroke-linecap="round" stroke-linejoin="round"/>
<path d="M407.196 188.125L409.635 187.661L410.216 191.027" stroke="#191440" stroke-miterlimit="10" stroke-linecap="round" stroke-linejoin="round"/>
<path d="M136.352 365.573L146.921 370.796" stroke="#191440" stroke-miterlimit="10" stroke-linecap="round" stroke-linejoin="round"/>
<path d="M143.436 361.627L140.417 372.653" stroke="#191440" stroke-miterlimit="10" stroke-linecap="round" stroke-linejoin="round"/>
<path d="M144.946 356.173C144.946 356.173 146.456 354.78 147.501 356.521C148.547 358.146 146.456 361.744 146.456 361.744L150.753 360.119" stroke="#191440" stroke-miterlimit="10" stroke-linecap="round" stroke-linejoin="round"/>
<path d="M219.626 0.580322C229.73 6.26702 218.116 20.1936 218.116 28.3175C218.116 36.4413 229.73 35.2808 235.537 37.6019C237.86 37.6019 242.506 37.6019 242.39 43.5207" stroke="#191440" stroke-miterlimit="10" stroke-linecap="round" stroke-linejoin="round"/>
<path d="M208.36 7.89185C210.102 17.5244 221.136 14.0428 227.872 16.2478C239.486 19.9616 232.982 32.0313 229.614 39.2267C227.524 43.5207 225.433 49.5556 229.15 53.7336" stroke="#191440" stroke-miterlimit="10" stroke-linecap="round" stroke-linejoin="round"/>
<path d="M209.87 11.6055L221.949 1.62476" stroke="#191440" stroke-miterlimit="10" stroke-linecap="round" stroke-linejoin="round"/>
<path d="M214.516 14.6229L223.691 7.07935" stroke="#191440" stroke-miterlimit="10" stroke-linecap="round" stroke-linejoin="round"/>
<path d="M219.974 22.2827L227.64 16.2478" stroke="#191440" stroke-miterlimit="10" stroke-linecap="round" stroke-linejoin="round"/>
<path d="M218.348 31.3349L233.331 20.5417" stroke="#191440" stroke-miterlimit="10" stroke-linecap="round" stroke-linejoin="round"/>
<path d="M224.039 35.5129L234.608 27.8533" stroke="#191440" stroke-miterlimit="10" stroke-linecap="round" stroke-linejoin="round"/>
<path d="M228.569 51.8768L241.693 41.1997" stroke="#191440" stroke-miterlimit="10" stroke-linecap="round" stroke-linejoin="round"/>
<path d="M228.917 43.5207L237.396 37.4858" stroke="#191440" stroke-miterlimit="10" stroke-linecap="round" stroke-linejoin="round"/>
<path d="M57.9097 371.399C70.3572 366.426 76.4127 352.31 71.435 339.872C66.4574 327.434 52.3315 321.383 39.8839 326.357C27.4364 331.331 21.3809 345.446 26.3586 357.884C31.3362 370.322 45.4621 376.373 57.9097 371.399Z" stroke="#191440" stroke-miterlimit="10" stroke-linecap="round" stroke-linejoin="round"/>
<path d="M55.0517 325.302C63.5301 315.321 70.7309 309.751 73.5183 311.608C77.6995 314.393 70.1502 333.31 56.5615 353.852C42.9728 374.393 28.5711 388.9 24.39 386.115C21.6026 384.258 23.9254 375.438 29.7326 363.716" stroke="#191440" stroke-miterlimit="10" stroke-linecap="round" stroke-linejoin="round"/>
<path d="M25.0869 353.852C13.2404 350.486 5.6911 346.54 6.15567 343.291C6.85252 338.3 27.2936 337.14 51.6836 340.738C76.0735 344.335 95.2371 351.299 94.5402 356.289C94.0757 359.771 84.0874 361.395 70.0341 360.815" stroke="#191440" stroke-miterlimit="10" stroke-linecap="round" stroke-linejoin="round"/>
<path d="M28.2227 336.211C19.2798 320.08 14.8663 307.546 17.886 305.573C21.8349 303.02 37.1657 319.616 52.1481 342.711C67.1305 365.805 76.0735 386.579 72.0085 389.133C69.3372 390.873 61.788 384.142 52.6127 372.653" stroke="#191440" stroke-miterlimit="10" stroke-linecap="round" stroke-linejoin="round"/>
<path d="M76.5787 321.788C75.5782 323.387 73.3408 323.819 71.6927 322.789C70.0918 321.789 69.6605 319.554 70.6903 317.908C71.6889 316.311 73.9199 315.878 75.5671 316.9C77.1937 318.025 77.5986 320.157 76.5787 321.788Z" fill="#191440" stroke="#191440"/>
<path d="M63.3385 382.949C62.338 384.548 60.1006 384.979 58.4524 383.95C56.8515 382.95 56.4203 380.715 57.4501 379.069C58.4487 377.472 60.6796 377.039 62.3269 378.061C63.9534 379.186 64.3583 381.318 63.3385 382.949Z" fill="#191440" stroke="#191440"/>
<path d="M41.9683 341.517C40.9678 343.117 38.7303 343.548 37.0822 342.519C35.4813 341.519 35.05 339.284 36.0798 337.637C37.0785 336.041 39.3094 335.608 40.9566 336.63C42.5832 337.754 42.9881 339.887 41.9683 341.517Z" fill="#191440" stroke="#191440"/>
<path d="M297.093 168.048H310.798L317.65 156.21L310.798 144.373H297.093L290.241 156.21L297.093 168.048Z" stroke="#191440" stroke-miterlimit="10" stroke-linecap="round" stroke-linejoin="round"/>
<path d="M295.119 194.044L288.266 182.207H274.561" stroke="#191440" stroke-miterlimit="10" stroke-linecap="round" stroke-linejoin="round"/>
<path d="M276.42 156.21H290.124L296.977 144.373L290.124 132.535H276.42L269.567 144.373L276.42 156.21Z" stroke="#191440" stroke-miterlimit="10" stroke-linecap="round" stroke-linejoin="round"/>
<path d="M297.093 144.372H310.798L317.65 132.535L310.798 120.697H297.093L290.241 132.535L297.093 144.372Z" stroke="#191440" stroke-miterlimit="10" stroke-linecap="round" stroke-linejoin="round"/>
<path d="M298.335 144.373C298.335 145.122 297.727 145.729 296.977 145.729C296.226 145.729 295.619 145.122 295.619 144.373C295.619 143.623 296.226 143.016 296.977 143.016C297.727 143.016 298.335 143.623 298.335 144.373Z" fill="#191440" stroke="#191440"/>
<path d="M269.764 119.537C269.764 120.286 269.156 120.894 268.406 120.894C267.655 120.894 267.047 120.286 267.047 119.537C267.047 118.788 267.655 118.18 268.406 118.18C269.156 118.18 269.764 118.788 269.764 119.537Z" fill="#191440" stroke="#191440"/>
<path d="M293.76 194.044C293.76 193.276 294.349 192.687 295.119 192.687C295.888 192.687 296.477 193.276 296.477 194.044C296.477 194.812 295.888 195.401 295.119 195.401C294.349 195.401 293.76 194.812 293.76 194.044Z" fill="#191440" stroke="#191440"/>
<path d="M275.92 182.206C275.92 182.956 275.312 183.563 274.561 183.563C273.811 183.563 273.203 182.956 273.203 182.206C273.203 181.457 273.811 180.85 274.561 180.85C275.312 180.85 275.92 181.457 275.92 182.206Z" fill="#191440" stroke="#191440"/>
<path d="M331.39 132.883C331.39 132.115 331.979 131.526 332.749 131.526C333.518 131.526 334.107 132.115 334.107 132.883C334.107 133.642 333.532 134.226 332.776 134.24C331.948 134.135 331.39 133.502 331.39 132.883Z" fill="#191440" stroke="#191440"/>
<path d="M289.508 182.206C289.508 182.956 288.901 183.563 288.15 183.563C287.4 183.563 286.792 182.956 286.792 182.206C286.792 181.457 287.4 180.85 288.15 180.85C288.901 180.85 289.508 181.457 289.508 182.206Z" fill="#191440" stroke="#191440"/>
<path d="M316.292 132.883C316.292 132.115 316.881 131.526 317.65 131.526C318.42 131.526 319.009 132.115 319.009 132.883C319.009 133.642 318.434 134.226 317.678 134.24C316.85 134.135 316.292 133.502 316.292 132.883Z" fill="#191440" stroke="#191440"/>
<path d="M295.619 168.048C295.619 167.28 296.207 166.691 296.977 166.691C297.746 166.691 298.335 167.28 298.335 168.048C298.335 168.816 297.746 169.405 296.977 169.405C296.207 169.405 295.619 168.816 295.619 168.048Z" fill="#191440" stroke="#191440"/>
<path d="M317.65 132.883H332.633" stroke="#191440" stroke-miterlimit="10" stroke-linecap="round" stroke-linejoin="round"/>
<path d="M296.977 168.048L288.15 182.207" stroke="#191440" stroke-miterlimit="10" stroke-linecap="round" stroke-linejoin="round"/>
<path d="M276.42 132.535L268.406 119.537" stroke="#191440" stroke-miterlimit="10" stroke-linecap="round" stroke-linejoin="round"/>
<path d="M373.399 85.8807C376.535 75.4358 386.174 67.7761 397.672 67.7761C409.519 67.7761 419.507 76.016 422.295 87.0413" stroke="#191440" stroke-miterlimit="10" stroke-linecap="round" stroke-linejoin="round"/>
<path d="M394.885 118.144C382.225 116.751 372.469 105.958 372.469 92.96" stroke="#191440" stroke-miterlimit="10" stroke-linecap="round" stroke-linejoin="round"/>
<path d="M423.108 92.96C423.108 106.887 411.726 118.26 397.789 118.26" stroke="#191440" stroke-miterlimit="10" stroke-linecap="round" stroke-linejoin="round"/>
<path d="M424.501 76.9444C432.399 75.8999 437.742 76.4802 438.555 78.8013C440.181 83.5595 423.224 93.7724 400.692 101.548C378.161 109.324 358.532 111.877 356.906 107.119C355.977 104.565 360.507 100.504 368.172 96.0935" stroke="#191440" stroke-miterlimit="10" stroke-linecap="round" stroke-linejoin="round"/>
<path d="M288.15 59.6523L290.589 64.5267L295.932 65.339L292.099 69.1689L293.028 74.5074L288.15 71.9542L283.272 74.5074L284.201 69.1689L280.252 65.339L285.711 64.5267L288.15 59.6523Z" stroke="#191440" stroke-miterlimit="10" stroke-linecap="round" stroke-linejoin="round"/>
<path d="M116.607 46.538C116.607 51.2963 114.633 55.5903 111.381 58.4917C108.477 61.277 104.412 63.0178 100.115 63.0178C99.5343 63.0178 99.0697 63.0178 98.6052 62.9018C95.1209 62.5536 92.1012 61.1609 89.546 59.072C87.4555 57.3311 85.7133 55.01 84.7842 52.3408C84.0873 50.4839 83.7389 48.5109 83.7389 46.422C83.7389 37.3697 91.172 29.9421 100.231 29.9421C102.786 29.9421 105.225 30.5224 107.432 31.5669C109.871 32.7275 112.078 34.5843 113.704 36.7894C115.446 39.5747 116.607 42.9403 116.607 46.538Z" stroke="#191440" stroke-miterlimit="10" stroke-linecap="round" stroke-linejoin="round"/>
<path d="M114.052 49.5554C114.052 50.9481 112.891 52.1086 111.497 52.1086C110.103 52.1086 108.942 50.9481 108.942 49.5554C108.942 48.1627 110.103 47.0022 111.497 47.0022C112.891 47.0022 114.052 48.0467 114.052 49.5554Z" stroke="#191440" stroke-miterlimit="10" stroke-linecap="round" stroke-linejoin="round"/>
<path d="M91.0559 55.9385C91.0559 57.2151 90.4752 58.3756 89.546 59.072C87.4555 57.3311 85.7133 55.01 84.7842 52.3408C85.3649 51.9926 86.1779 51.7605 86.8748 51.7605C89.1976 51.8766 91.0559 53.7334 91.0559 55.9385Z" stroke="#191440" stroke-miterlimit="10" stroke-linecap="round" stroke-linejoin="round"/>
<path d="M111.497 58.4917C108.593 61.277 104.529 63.0178 100.231 63.0178C99.6505 63.0178 99.1859 63.0178 98.7214 62.9018C98.6052 62.4376 98.6052 61.9733 98.6052 61.5091C98.6052 57.6793 101.625 54.6619 105.458 54.6619C108.013 54.6619 110.336 56.2866 111.497 58.4917Z" stroke="#191440" stroke-miterlimit="10" stroke-linecap="round" stroke-linejoin="round"/>
<path d="M96.1662 40.039C98.283 40.039 99.9989 38.3244 99.9989 36.2092C99.9989 34.0941 98.283 32.3794 96.1662 32.3794C94.0495 32.3794 92.3335 34.0941 92.3335 36.2092C92.3335 38.3244 94.0495 40.039 96.1662 40.039Z" stroke="#191440" stroke-miterlimit="10" stroke-linecap="round" stroke-linejoin="round"/>
<path d="M99.6504 47.0023C99.6504 47.9307 98.8374 48.7431 97.9083 48.7431C96.9791 48.7431 96.1661 47.9307 96.1661 47.0023C96.1661 46.0739 96.9791 45.2615 97.9083 45.2615C98.9536 45.2615 99.6504 45.9578 99.6504 47.0023Z" stroke="#191440" stroke-miterlimit="10" stroke-linecap="round" stroke-linejoin="round"/>
<path d="M113.588 36.9053C113.123 37.0214 112.658 37.1374 112.078 37.1374C109.406 37.1374 107.2 34.9324 107.2 32.2631C107.2 32.031 107.2 31.7989 107.2 31.6829C109.871 32.9595 111.962 34.7003 113.588 36.9053Z" stroke="#191440" stroke-miterlimit="10" stroke-linecap="round" stroke-linejoin="round"/>
<path d="M492.213 237.681L493.955 233.735L491.051 232.11C491.167 231.414 491.167 230.718 491.051 230.021L493.955 228.629L492.329 224.567L489.193 225.495C488.728 224.915 488.264 224.451 487.683 223.986L488.728 220.853L484.779 219.112L483.153 222.013C482.457 221.897 481.76 221.897 481.063 222.013L479.669 219.112L475.604 220.737L476.533 223.87C475.953 224.335 475.488 224.799 475.024 225.379L471.888 224.335L470.146 228.28L473.049 229.905C472.933 230.602 472.933 231.298 473.049 231.994L470.146 233.387L471.772 237.449L474.907 236.52C475.372 237.101 475.837 237.565 476.417 238.029L475.372 241.163L479.321 242.903L480.947 240.002C481.644 240.118 482.34 240.118 483.037 240.002L484.431 242.903L488.496 241.279L487.567 238.145C488.148 237.681 488.612 237.217 489.077 236.636L492.213 237.681ZM480.134 235.36C477.579 234.199 476.417 231.182 477.579 228.629C478.74 226.075 481.76 224.915 484.315 226.075C486.87 227.236 488.031 230.253 486.87 232.807C485.593 235.36 482.689 236.52 480.134 235.36Z" stroke="#191440" stroke-miterlimit="10" stroke-linecap="round" stroke-linejoin="round"/>
<path d="M470.958 258.107L473.397 252.652L469.449 250.447C469.565 249.518 469.565 248.474 469.565 247.546L473.63 245.573L471.539 240.002L467.242 241.279C466.661 240.466 465.964 239.77 465.267 239.19L466.777 235.012L461.319 232.574L459.112 236.52C458.183 236.404 457.137 236.404 456.208 236.404L454.234 232.342L448.659 234.431L449.937 238.725C449.124 239.306 448.427 240.002 447.846 240.698L443.665 239.19L441.226 244.644L445.175 246.849C445.059 247.778 445.059 248.822 445.059 249.751L440.994 251.723L443.084 257.294L447.381 256.018C447.962 256.83 448.659 257.526 449.356 258.107L447.846 262.285L453.305 264.722L455.511 260.776C456.441 260.892 457.486 260.892 458.415 260.892L460.389 264.954L465.964 262.865L464.687 258.571C465.5 257.99 466.197 257.294 466.777 256.598L470.958 258.107ZM454.466 255.089C450.982 253.58 449.472 249.518 450.982 246.037C452.492 242.555 456.557 241.046 460.041 242.555C463.525 244.064 465.035 248.126 463.525 251.607C462.015 255.089 457.95 256.598 454.466 255.089Z" stroke="#191440" stroke-miterlimit="10" stroke-linecap="round" stroke-linejoin="round"/>
<path d="M230.195 206.694C228.569 209.711 226.827 212.613 224.852 215.398C214.283 230.137 198.952 239.886 182.112 243.832C173.749 245.805 165.039 246.269 156.444 245.224C147.85 244.18 139.371 241.627 131.357 237.333C129.731 236.52 128.222 235.592 126.596 234.663C125.086 233.735 123.576 232.69 122.182 231.646C120.44 230.369 118.814 229.093 117.188 227.7C117.072 227.584 116.956 227.584 116.956 227.468C107.664 219.228 100.812 209.015 96.7469 197.758C95.0048 193.116 93.8433 188.357 93.1465 183.483C90.9398 168.628 93.2626 152.845 100.812 138.57C111.962 117.332 132.17 103.869 154.121 100.388C169.22 97.9505 185.248 100.272 199.765 107.931C213.586 115.127 224.039 126.152 230.659 139.034C241.112 159.46 241.809 184.644 230.195 206.694Z" fill="#5840BB"/>
<g opacity="0.6">
<path opacity="0.6" d="M230.195 206.694C228.569 209.711 226.827 212.613 224.852 215.398L223.459 214.238L221.02 212.961L218.464 211.568L218.929 208.435C218.929 208.435 218.929 208.435 218.813 205.65C218.697 202.864 220.671 205.185 222.297 204.257C223.923 203.328 225.317 200.775 225.317 200.775C225.317 200.775 226.478 197.061 226.13 195.553C225.781 194.044 223.923 190.562 223.923 190.562L219.742 196.365L216.374 196.133L213.006 194.392L212.541 189.866L210.799 188.938L210.102 186.268L200.927 183.715C200.927 183.715 200.927 183.715 199.882 181.858C198.836 180.001 194.655 179.073 194.655 179.073L195.7 176.636C195.7 176.636 195.7 176.636 197.326 173.966C198.952 171.297 200.695 175.707 200.695 175.707L202.669 176.752L206.269 173.734C206.269 173.734 206.269 173.734 207.199 169.44L213.006 169.789C213.006 169.789 212.541 167.7 214.516 166.887C216.49 166.075 215.561 161.897 214.864 160.272C214.051 158.763 211.38 159.924 211.38 159.924C211.38 159.924 208.36 155.398 208.012 153.541C207.663 151.684 213.703 152.38 216.374 150.523C218.929 148.783 218.116 145.069 216.838 144.953C215.561 144.837 219.394 136.713 226.594 138.918C228.569 139.498 229.846 139.266 230.659 138.686C241.112 159.46 241.809 184.644 230.195 206.694Z" fill="white"/>
<path opacity="0.6" d="M179.44 175.243C177.001 178.377 177.001 178.377 177.001 178.377C177.001 178.377 175.956 175.823 174.446 177.216C172.936 178.609 172.123 179.305 172.123 179.305L170.497 184.063L167.478 186.036L165.619 185.108L163.877 184.179L162.019 183.135L160.161 186.616L158.651 189.402C159.812 191.607 161.322 193.116 161.322 193.116L164.574 198.802L168.407 200.775C170.73 200.775 173.285 201.355 173.285 201.355L175.956 202.748L175.027 208.551C175.027 208.551 173.053 211.8 171.659 210.988C170.265 210.06 170.265 210.06 170.265 210.06L168.058 217.719L167.942 221.897C167.942 221.897 166.665 222.477 165.271 222.826C163.877 223.29 164.806 223.058 162.019 223.87C159.232 224.682 159.464 224.682 157.257 225.379C155.05 225.959 151.682 227.932 151.682 227.932L151.915 231.994L146.572 232.806L143.552 231.182L144.249 228.628L144.598 224.683L144.249 221.665L142.972 218.996L146.572 215.746L145.759 213.657L143.669 209.595L139.371 211.916L137.165 213.077L132.17 210.872L131.59 207.855L129.848 202.4L128.338 199.034L125.55 195.321L124.853 192.071L126.363 189.17L127.176 187.661L124.621 184.295L123.924 181.858L119.627 177.912C119.627 177.912 120.905 177.796 120.556 176.055C120.324 174.315 122.995 171.413 122.995 171.413C124.505 172.226 129.151 175.475 129.151 175.475L133.216 176.055C133.216 176.055 134.029 176.055 134.842 174.547C135.655 173.038 138.094 170.717 138.094 170.717C138.094 170.717 136.235 164.218 137.513 163.405C138.791 162.477 140.184 158.299 140.184 158.299L141.23 156.21C141.23 156.21 138.674 155.166 138.21 153.773C137.745 152.38 131.474 154.237 131.474 154.237L127.176 157.255L123.924 159.808L122.414 162.593C122.414 162.593 119.395 158.995 119.395 160.968C119.395 162.941 118.001 167.003 118.001 167.003C118.001 167.003 118.582 167.351 117.769 168.86C116.956 170.369 116.027 170.369 114.284 170.601C112.542 170.833 107.316 170.137 107.316 170.137C107.316 170.137 106.154 174.431 106.967 175.127C107.78 175.823 107.78 175.823 107.78 175.823C107.78 175.823 106.503 178.957 105.341 178.26C104.064 177.564 102.322 176.636 102.322 176.636L98.1406 178.377L93.4949 183.483L92.9142 183.367C90.7075 168.512 93.0303 152.728 100.58 138.454C111.729 117.216 131.938 103.753 153.889 100.271C154.121 101.432 154.47 102.477 154.47 102.477L153.308 108.163L151.799 110.949L150.521 113.386L148.663 116.751L153.192 121.045L152.147 126.036L149.824 127.66L149.127 131.374L153.425 139.73L154.586 142.98C154.586 142.98 153.192 145.997 153.541 147.97C153.541 147.97 154.005 151.104 156.328 152.38C158.651 153.657 161.671 155.049 161.671 155.049L161.438 159.692L160.393 160.852L162.135 165.843C167.362 167.932 166.897 169.556 167.362 167.932C167.826 166.191 167.826 166.191 167.826 166.191L171.427 164.914L175.956 170.369C175.956 170.369 177.35 170.137 178.627 171.761C179.905 173.618 181.996 172.11 179.44 175.243Z" fill="white"/>
<path opacity="0.6" d="M117.885 215.746C118.001 217.371 115.91 219.46 115.91 219.46L117.653 220.388L118.233 225.031L116.956 227.468C107.664 219.228 100.812 209.015 96.6307 197.758L97.5599 192.651L101.625 192.071C101.625 192.071 105.341 189.634 106.967 190.33C108.593 191.027 110.103 194.972 110.103 194.972C110.103 194.972 111.265 200.311 111.149 200.311H111.032H111.149L112.775 201.239L113.239 203.328L110.916 207.738H107.2C107.2 207.738 106.503 207.39 106.387 209.247C106.271 211.22 108.361 212.613 108.361 212.613L112.426 211.568C113.471 207.39 113.471 207.39 113.471 207.39L117.42 206.578C117.42 206.578 116.84 209.131 117.769 209.595C118.698 210.06 118.698 210.06 118.698 210.06L119.279 213.077C119.162 213.193 117.769 214.005 117.885 215.746Z" fill="white"/>
<path opacity="0.6" d="M137.048 222.245C136.7 221.201 136.584 220.388 134.029 219.112C131.59 217.835 131.706 218.299 130.777 219.344C129.847 220.388 128.686 220.969 127.06 220.621C125.434 220.272 126.247 222.129 126.247 222.129L126.595 227.12L122.066 231.646C123.46 232.69 124.969 233.619 126.479 234.663L127.408 231.646L135.074 233.967C133.448 233.503 134.377 231.298 134.377 231.298L132.751 230.485C132.867 230.253 137.513 223.29 137.048 222.245Z" fill="white"/>
<path opacity="0.6" d="M185.131 196.481L182.576 193.928L179.673 194.856L178.511 197.178L177.582 198.802L178.744 201.123L181.066 203.909L182.344 201.355C182.344 201.355 186.061 201.355 187.919 199.266C190.009 197.178 185.131 196.481 185.131 196.481Z" fill="white"/>
<path opacity="0.6" d="M177.698 185.108L182.344 187.545C182.344 187.545 182.344 187.545 182.576 186.5C182.809 185.456 183.854 184.063 183.854 184.063L180.253 180.349L177.698 185.108Z" fill="white"/>
<path opacity="0.6" d="M176.189 239.189L174.795 237.216L173.285 236.404H168.523L165.852 241.51C165.852 241.51 163.297 241.162 159.812 240.814C156.444 240.466 157.257 241.859 157.257 241.859L156.328 245.108C165.039 246.153 173.75 245.688 181.996 243.716C180.602 242.787 178.976 241.859 178.976 241.859L176.189 239.189Z" fill="white"/>
</g>
<path d="M230.195 206.694C228.569 209.711 226.827 212.613 224.852 215.398C214.283 230.137 198.952 239.886 182.112 243.832C173.749 245.805 165.039 246.269 156.444 245.224C147.85 244.18 139.371 241.627 131.357 237.333C129.731 236.52 128.222 235.592 126.596 234.663C125.086 233.735 123.576 232.69 122.182 231.646C120.44 230.369 118.814 229.093 117.188 227.7C117.072 227.584 116.956 227.584 116.956 227.468C107.664 219.228 100.812 209.015 96.7469 197.758C95.0048 193.116 93.8433 188.357 93.1465 183.483C90.9398 168.628 93.2626 152.845 100.812 138.57C111.962 117.332 132.17 103.869 154.121 100.388C169.22 97.9505 185.248 100.272 199.765 107.931C213.586 115.127 224.039 126.152 230.659 139.034C241.112 159.46 241.809 184.644 230.195 206.694Z" stroke="#191440" stroke-miterlimit="10" stroke-linecap="round" stroke-linejoin="round"/>
<path d="M182.112 243.832C173.749 245.805 165.039 246.269 156.444 245.224L157.373 241.975C157.373 241.975 156.56 240.582 159.928 240.93C163.297 241.279 165.968 241.627 165.968 241.627L168.639 236.52H173.401L174.911 237.333L176.305 239.306L179.208 242.091C179.092 241.975 180.718 242.787 182.112 243.832Z" stroke="#191440" stroke-miterlimit="10" stroke-linecap="round" stroke-linejoin="round"/>
<path d="M230.543 138.918C229.73 139.614 228.453 139.846 226.478 139.15C219.161 136.945 215.445 145.069 216.722 145.185C218 145.301 218.929 148.898 216.258 150.755C213.586 152.496 207.547 151.916 207.895 153.773C208.36 155.63 211.264 160.156 211.264 160.156C211.264 160.156 213.935 158.879 214.748 160.504C215.445 162.129 216.374 166.307 214.399 167.119C212.425 167.931 212.89 170.02 212.89 170.02L206.966 169.672C206.037 173.966 206.037 173.966 206.037 173.966L202.437 176.984L200.462 175.939C200.462 175.939 198.72 171.529 197.094 174.198C195.468 176.868 195.468 176.868 195.468 176.868L194.423 179.305C194.423 179.305 198.604 180.233 199.649 182.09C200.695 183.947 200.695 183.947 200.695 183.947L209.87 186.5L210.567 189.17L212.309 190.098L212.773 194.624L216.142 196.365L219.51 196.597L223.691 190.794C223.691 190.794 225.549 194.392 225.898 195.785C226.362 197.293 225.085 201.007 225.085 201.007C225.085 201.007 223.807 203.56 222.065 204.489C220.439 205.301 218.348 203.096 218.581 205.881C218.697 208.667 218.697 208.667 218.697 208.667L218.232 211.8L220.787 213.193L223.226 214.47L224.62 215.63" stroke="#191440" stroke-miterlimit="10" stroke-linecap="round" stroke-linejoin="round"/>
<path d="M92.9142 183.367L93.9595 183.599L98.6052 178.493L102.786 176.752C102.786 176.752 104.528 177.68 105.806 178.377C107.084 179.073 108.245 175.939 108.245 175.939C108.245 175.939 108.245 175.939 107.432 175.243C106.619 174.547 107.78 170.253 107.78 170.253C107.78 170.253 112.891 170.949 114.749 170.717C116.607 170.485 117.42 170.601 118.233 168.976C119.046 167.467 118.466 167.119 118.466 167.119C118.466 167.119 119.859 163.057 119.859 161.084C119.859 159.111 122.879 162.709 122.879 162.709L124.389 159.924L127.641 157.371L131.938 154.353C131.938 154.353 138.21 152.612 138.674 153.889C139.139 155.282 141.694 156.326 141.694 156.326L140.649 158.299C140.649 158.299 139.255 162.477 137.978 163.405C136.7 164.334 138.558 170.717 138.558 170.717C138.558 170.717 136.119 173.038 135.306 174.547C134.493 176.055 133.68 176.055 133.68 176.055L129.615 175.475C129.615 175.475 124.97 172.226 123.46 171.413C123.46 171.413 120.788 174.315 121.021 176.055C121.253 177.796 120.092 177.912 120.092 177.912L124.389 181.742L125.086 184.179L127.641 187.545L126.828 189.054L125.318 191.955L126.015 195.205L128.802 198.918L130.312 202.284L132.054 207.738L132.635 210.756L137.629 212.961L139.836 211.8L144.133 209.479L146.108 213.541L146.921 215.514L143.32 218.764L144.598 221.433L145.062 224.45L144.714 228.396L144.017 230.949L147.037 232.574L152.379 231.762L152.147 227.7C152.147 227.7 155.399 225.727 157.606 225.147C159.812 224.45 159.58 224.566 162.367 223.638C165.155 222.826 164.342 223.058 165.619 222.594C166.897 222.129 168.291 221.665 168.291 221.665L168.407 217.487L170.614 209.827C170.614 209.827 170.614 209.827 172.007 210.756C173.401 211.684 175.375 208.435 175.375 208.435L176.305 202.632L173.633 201.239C173.633 201.239 171.194 200.659 168.755 200.659L164.923 198.686L161.671 192.999C161.671 192.999 160.161 191.375 158.999 189.17L160.509 186.384L162.367 182.903L164.226 183.947L165.968 184.876L167.826 185.804L170.846 183.831L172.588 179.073C172.588 179.073 173.401 178.377 174.911 176.984C176.421 175.591 177.466 178.144 177.466 178.144C177.466 178.144 177.466 178.144 179.905 175.011C182.344 171.877 180.37 173.386 179.092 171.761C177.814 170.137 176.421 170.369 176.421 170.369L171.891 164.914L168.291 166.191C168.291 166.191 168.291 166.191 167.826 167.932C167.362 169.672 167.826 167.932 162.6 165.843L160.858 160.852L161.903 159.692L162.135 155.049C162.135 155.049 159.115 153.541 156.793 152.38C154.47 151.104 154.005 147.97 154.005 147.97C153.657 145.881 155.05 142.98 155.05 142.98L153.889 139.73L149.592 131.374L150.289 127.66L152.728 126.036L153.657 121.045L149.127 116.751L150.869 113.386L152.147 110.949L153.657 108.163L154.818 102.477C154.818 102.477 154.586 101.432 154.238 100.271" stroke="#191440" stroke-miterlimit="10" stroke-linecap="round" stroke-linejoin="round"/>
<path d="M117.188 227.7C117.072 227.584 116.956 227.468 116.84 227.468L118.117 225.031L117.653 220.388L115.91 219.46C115.91 219.46 118.001 217.371 117.885 215.746C117.769 214.121 119.162 213.309 119.162 213.309L118.582 210.292C118.582 210.292 118.582 210.292 117.653 209.827C116.723 209.363 117.304 206.81 117.304 206.81L113.355 207.622C113.355 207.622 113.355 207.622 112.31 211.8L108.245 212.845C108.245 212.845 106.271 211.452 106.271 209.479C106.387 207.506 107.084 207.97 107.084 207.97H110.8L113.123 203.56L112.658 201.471L111.032 200.543" stroke="#191440" stroke-miterlimit="10" stroke-linecap="round" stroke-linejoin="round"/>
<path d="M111.032 200.195C111.265 200.311 109.987 194.972 109.987 194.972C109.987 194.972 108.477 191.027 106.851 190.33C105.225 189.634 101.509 192.071 101.509 192.071L97.4438 192.651L96.5146 197.526" stroke="#191440" stroke-miterlimit="10" stroke-linecap="round" stroke-linejoin="round"/>
<path d="M127.525 231.53L126.596 234.547C125.086 233.619 123.576 232.574 122.182 231.53L126.712 227.004L126.363 222.013C126.363 222.013 125.55 220.156 127.176 220.505C128.802 220.853 129.848 220.272 130.893 219.228C131.822 218.184 131.706 217.719 134.145 218.996C136.584 220.272 136.816 221.201 137.165 222.129C137.513 223.058 132.867 230.137 132.867 230.137L134.493 230.95C134.493 230.95 133.564 233.155 135.19 233.619L127.525 231.53Z" stroke="#191440" stroke-miterlimit="10" stroke-linecap="round" stroke-linejoin="round"/>
<path d="M179.789 194.856L182.692 193.928L185.248 196.481C185.248 196.481 190.242 197.178 188.267 199.266C186.293 201.472 182.692 201.355 182.692 201.355L181.415 203.909L179.092 201.123L177.931 198.802L178.86 197.178L179.789 194.856Z" stroke="#191440" stroke-miterlimit="10" stroke-linecap="round" stroke-linejoin="round"/>
<path d="M183.854 184.063C183.854 184.063 182.809 185.34 182.576 186.5C182.344 187.545 182.344 187.545 182.344 187.545L177.698 185.108L180.253 180.349L183.854 184.063Z" stroke="#191440" stroke-miterlimit="10" stroke-linecap="round" stroke-linejoin="round"/>
<path d="M437.706 376.965C437.099 405.115 436.088 437.615 435.391 457.594C428.537 463.179 381.225 495.216 313.685 490.098C311.799 474.272 307.417 434.891 305.461 396.868C304.474 377.69 304.105 358.87 304.982 343.597C305.42 335.96 306.169 329.223 307.305 323.777C308.43 318.382 309.921 314.319 311.814 311.894L311.818 311.892C311.891 311.858 312.001 311.807 312.146 311.741C312.436 311.609 312.867 311.416 313.43 311.173C314.554 310.686 316.202 309.998 318.292 309.197C322.472 307.594 328.417 305.536 335.472 303.721C349.592 300.089 368.116 297.439 385.835 301.303C403.65 305.188 416.011 308.98 424.228 312.588C428.336 314.391 431.393 316.142 433.573 317.824C435.753 319.507 437.03 321.1 437.624 322.583C437.711 322.813 437.806 323.381 437.889 324.33C437.97 325.259 438.035 326.492 438.086 327.999C438.188 331.013 438.231 335.103 438.225 340.004C438.214 349.806 438.011 362.836 437.706 376.965Z" fill="#191440" stroke="#191440"/>
<path d="M384.781 314.509C364.223 332.266 337.743 328.552 338.324 314.857C338.44 312.768 340.646 310.099 340.646 310.099C340.646 310.099 340.298 309.635 339.833 308.822C339.02 307.662 337.859 305.805 336.349 303.6C333.794 299.654 330.658 294.664 328.451 291.066C326.593 288.049 372.934 259.499 372.934 275.863C372.934 298.958 384.316 303.252 384.316 303.252C388.497 305.109 392.562 307.778 384.781 314.509Z" fill="white" stroke="#191440" stroke-miterlimit="10" stroke-linecap="round" stroke-linejoin="round"/>
<path d="M397.789 349.79C397.789 349.79 393.608 363.949 395.582 368.01" stroke="white" stroke-miterlimit="10" stroke-linecap="round" stroke-linejoin="round"/>
<path d="M392.91 308.474C392.91 322.169 352.028 335.631 339.949 321.82" stroke="white" stroke-miterlimit="10" stroke-linecap="round" stroke-linejoin="round"/>
<path d="M356.771 294.192C357.427 293.929 357.983 293.71 358.413 293.542C358.336 293.746 358.243 293.979 358.135 294.238C357.685 295.311 356.954 296.831 355.831 298.603C353.635 302.069 349.942 306.503 343.926 310.454C343.824 310.321 343.693 310.165 343.532 309.998C343.052 309.503 342.296 308.908 341.176 308.473L341.164 308.468L341.153 308.464C340.879 308.373 340.592 308.381 340.379 308.396C340.273 308.404 340.188 308.412 340.115 308.42C340.104 308.421 340.094 308.422 340.084 308.423C339.736 307.915 339.327 307.293 338.855 306.574L338.771 306.445C338.261 305.668 337.683 304.789 337.037 303.837C340.345 301.507 345.767 298.898 350.473 296.834C352.913 295.763 355.147 294.844 356.771 294.192Z" fill="#191440" stroke="#191440"/>
<path d="M365.036 280.041C365.036 280.041 364.92 290.254 362.713 292.343C346.453 307.894 330.658 309.055 328.103 304.993C310.565 277.372 314.63 270.176 312.888 265.418C309.752 257.178 305.804 243.6 307.546 235.36C311.378 217.023 345.873 202.864 363.991 221.317C372.702 230.137 375.489 249.286 373.631 265.186" fill="white"/>
<path d="M365.036 280.041C365.036 280.041 364.92 290.254 362.713 292.343C346.453 307.894 330.658 309.055 328.103 304.993C310.565 277.372 314.63 270.176 312.888 265.418C309.752 257.178 305.804 243.6 307.546 235.36C311.378 217.023 345.873 202.864 363.991 221.317C372.702 230.137 375.489 249.286 373.631 265.186" stroke="#191440" stroke-miterlimit="10" stroke-linecap="round" stroke-linejoin="round"/>
<path d="M314.979 256.83C314.979 256.83 310.101 254.625 309.056 257.294" stroke="#191440" stroke-miterlimit="10" stroke-linecap="round" stroke-linejoin="round"/>
<path d="M326.709 256.946C326.709 256.946 336.814 252.768 341.343 257.874" stroke="#191440" stroke-miterlimit="10" stroke-linecap="round" stroke-linejoin="round"/>
<path d="M337.36 264.18C337.412 264.852 337.28 265.448 337.045 265.871C336.809 266.295 336.496 266.51 336.178 266.546C335.866 266.58 335.493 266.429 335.157 266.046C334.826 265.668 334.575 265.104 334.525 264.451C334.473 263.779 334.605 263.183 334.841 262.759C335.076 262.336 335.389 262.12 335.707 262.085C336.019 262.05 336.393 262.202 336.728 262.585C337.059 262.963 337.31 263.526 337.36 264.18Z" fill="#191440" stroke="#191440"/>
<path d="M317.616 264.644C317.668 265.316 317.536 265.912 317.3 266.335C317.065 266.759 316.752 266.974 316.433 267.01C316.121 267.044 315.748 266.893 315.413 266.51C315.082 266.132 314.831 265.569 314.78 264.915C314.729 264.243 314.861 263.647 315.096 263.224C315.332 262.8 315.645 262.585 315.963 262.549C316.275 262.515 316.648 262.666 316.983 263.049C317.315 263.427 317.566 263.99 317.616 264.644Z" fill="#191440" stroke="#191440"/>
<path d="M318.695 260.66C320.089 262.981 319.276 266.811 317.534 272.033C315.676 277.372 317.302 279.228 324.386 279.809" fill="white"/>
<path d="M318.695 260.66C320.089 262.981 319.276 266.811 317.534 272.033C315.676 277.372 317.302 279.228 324.386 279.809" stroke="#191440" stroke-miterlimit="10" stroke-linecap="round" stroke-linejoin="round"/>
<path d="M324.386 288.977C324.386 288.977 333.678 288.165 337.975 285.844" stroke="#191440" stroke-miterlimit="10" stroke-linecap="round" stroke-linejoin="round"/>
<path d="M382.655 236.404V236.406C382.712 251.96 380.195 262.81 377.676 269.729C376.416 273.19 375.155 275.668 374.215 277.261C373.744 278.057 373.355 278.631 373.087 278.994C373.085 278.996 373.083 278.999 373.081 279.002L367.933 271.928C367.931 271.921 367.928 271.913 367.926 271.906C367.905 271.834 367.874 271.729 367.832 271.594C367.747 271.326 367.617 270.939 367.437 270.459C367.076 269.5 366.512 268.169 365.693 266.672C364.087 263.737 361.49 260.144 357.518 257.486C357.518 257.486 357.518 257.486 357.518 257.485C357.512 257.311 357.497 257.061 357.465 256.754C357.401 256.141 357.265 255.292 356.978 254.349C356.405 252.464 355.217 250.166 352.758 248.63L352.758 248.63L352.751 248.626C347.892 245.69 344.576 240.352 342.384 235.165L342.211 234.755L341.784 234.879C338.583 235.81 334.434 237.123 330.54 238.879C327.597 240.205 324.765 241.799 322.598 243.697C322.817 243.224 323.072 242.701 323.363 242.15C324.527 239.938 326.231 237.309 328.42 235.514L327.917 234.663L328.103 235.128C327.917 234.663 327.917 234.663 327.917 234.663L327.916 234.664L327.914 234.664L327.906 234.668L327.875 234.68C327.848 234.691 327.808 234.708 327.755 234.729C327.651 234.772 327.498 234.836 327.304 234.919C326.914 235.084 326.357 235.327 325.68 235.638C324.329 236.258 322.5 237.15 320.597 238.233C318.695 239.314 316.707 240.593 315.042 241.991C314.217 242.683 313.46 243.414 312.83 244.175C312.875 244.001 312.924 243.821 312.977 243.636C313.503 241.802 314.436 239.494 316.061 237.536L315.292 236.896L315.676 237.216C315.292 236.896 315.292 236.896 315.292 236.896L315.292 236.896L315.291 236.897L315.291 236.897L315.287 236.902L315.274 236.918L315.222 236.98C315.178 237.034 315.113 237.114 315.03 237.217C314.864 237.424 314.627 237.724 314.34 238.099C313.767 238.849 312.994 239.904 312.195 241.12C310.61 243.532 308.87 246.656 308.446 249.324L308.432 249.407L308.447 249.489L309.571 255.855L306.632 252.995L307.202 252.425L307.634 251.994L307.126 251.655L303.664 249.349L306.597 243.595L307.099 242.611L306.029 242.883L299.462 244.549C300.078 242.192 302.452 234.475 307.985 226.55C313.597 218.511 322.445 210.28 335.996 207.181L335.998 207.181C347.82 204.428 357.384 207.073 364.094 214.118L364.214 214.245L364.388 214.269C370.123 215.055 374.689 218.884 377.837 223.416C380.989 227.955 382.655 233.108 382.655 236.404Z" fill="#191440" stroke="#191440"/>
<path d="M359.578 259.963C357.719 255.901 364.572 244.992 369.334 246.385C372.005 247.197 375.605 252.072 376.302 257.294C376.999 262.517 373.282 272.381 369.334 274.47C366.895 275.863 364.804 272.033 364.804 272.033" fill="white"/>
<path d="M359.578 259.963C357.719 255.901 364.572 244.992 369.334 246.385C372.005 247.197 375.605 252.072 376.302 257.294C376.999 262.517 373.282 272.381 369.334 274.47C366.895 275.863 364.804 272.033 364.804 272.033" stroke="#191440" stroke-miterlimit="10" stroke-linecap="round" stroke-linejoin="round"/>
<path d="M63.2977 456.909L194.539 426.27L468.171 457.837L397.789 506L63.2977 456.909Z" fill="#F5F5F5"/>
<path d="M63.2977 456.909L194.539 426.27L468.171 457.837" fill="white"/>
<path d="M63.2977 456.909L194.539 426.27L468.171 457.837" stroke="#191440" stroke-miterlimit="10" stroke-linecap="round" stroke-linejoin="round"/>
<path d="M176.885 463.06L229.962 439.616L297.093 443.098L267.244 468.63L176.885 463.06Z" fill="white" stroke="#191440" stroke-miterlimit="10" stroke-linecap="round" stroke-linejoin="round"/>
<path d="M264.442 395.425L264.442 395.425L264.442 395.425L264.437 395.426L264.413 395.431C264.391 395.436 264.357 395.444 264.312 395.455C264.222 395.477 264.086 395.512 263.909 395.562C263.556 395.661 263.039 395.822 262.395 396.064C261.107 396.546 259.314 397.351 257.308 398.635C253.299 401.201 248.435 405.684 245.054 413.358C241.695 421.039 242.848 427.839 246.407 432.661C249.977 437.498 256.002 440.388 262.465 440.161L262.662 440.154L264.442 395.425ZM264.442 395.425L264.442 395.425L264.687 395.374L264.793 395.148C270.678 382.61 275.515 371.977 279.63 362.933C285.676 349.644 290.162 339.782 294.123 332.341C300.639 320.098 305.669 314.537 313.773 311.104L337.414 370.507C337.323 370.646 337.188 370.851 337.012 371.118C336.656 371.658 336.132 372.45 335.461 373.459C334.12 375.477 332.191 378.361 329.841 381.823C325.143 388.748 318.766 397.984 312.048 407.233C305.329 416.485 298.276 425.741 292.226 432.71C289.199 436.195 286.434 439.097 284.093 441.137C282.923 442.158 281.869 442.953 280.951 443.498C280.024 444.049 279.281 444.316 278.721 444.339C273.339 444.568 269.346 443.538 266.707 442.461C265.387 441.922 264.405 441.371 263.756 440.957C263.432 440.751 263.192 440.579 263.034 440.46C262.955 440.401 262.897 440.355 262.86 440.325C262.841 440.31 262.828 440.298 262.82 440.291L262.811 440.284L262.81 440.284L262.81 440.283L262.81 440.283L264.442 395.425Z" fill="#191440" stroke="#191440"/>
<path d="M269.567 398.533C277.233 405.264 281.53 415.245 279.207 426.27" stroke="white" stroke-miterlimit="10" stroke-linecap="round" stroke-linejoin="round"/>
<path d="M276.884 401.782C276.884 401.782 286.292 403.871 287.685 415.825" stroke="white" stroke-miterlimit="10" stroke-linecap="round" stroke-linejoin="round"/>
<path d="M304.294 366.734C304.294 366.734 297.093 350.95 299.88 332.266" stroke="white" stroke-miterlimit="10" stroke-linecap="round" stroke-linejoin="round"/>
<path d="M302.9 350.95C302.203 355.825 307.197 381.821 307.197 409.094" stroke="white" stroke-miterlimit="10" stroke-linecap="round" stroke-linejoin="round"/>
<mask id="path-121-inside-1" fill="white">
<path d="M430.308 315.554C451.679 326.231 454.118 359.19 434.025 398.533C419.856 426.27 400.228 467.354 387.8 470.139C375.373 472.924 363.294 465.149 363.294 465.149C363.294 465.149 352.841 464.684 349.706 457.257C341.111 436.947 363.062 411.299 371.656 417.45C371.656 417.45 399.298 357.45 404.293 353.736"/>
</mask>
<path d="M430.308 315.554C451.679 326.231 454.118 359.19 434.025 398.533C419.856 426.27 400.228 467.354 387.8 470.139C375.373 472.924 363.294 465.149 363.294 465.149C363.294 465.149 352.841 464.684 349.706 457.257C341.111 436.947 363.062 411.299 371.656 417.45C371.656 417.45 399.298 357.45 404.293 353.736" fill="#191440"/>
<path d="M434.025 398.533L434.916 398.988L434.916 398.988L434.025 398.533ZM363.294 465.149L363.835 464.308L363.608 464.162L363.339 464.15L363.294 465.149ZM349.706 457.257L350.627 456.868L350.626 456.867L349.706 457.257ZM371.656 417.45L371.074 418.263L372.058 418.967L372.565 417.869L371.656 417.45ZM429.862 316.448C440.135 321.581 445.96 332.101 446.717 346.347C447.474 360.609 443.129 378.507 433.134 398.078L434.916 398.988C445.013 379.216 449.496 360.963 448.714 346.241C447.931 331.502 441.852 320.203 430.755 314.659L429.862 316.448ZM433.135 398.078C426.038 411.97 417.609 429.134 409.396 443.188C405.29 450.215 401.259 456.427 397.498 461.045C395.617 463.353 393.823 465.241 392.138 466.628C390.444 468.023 388.92 468.863 387.582 469.163L388.019 471.115C389.787 470.719 391.595 469.666 393.409 468.172C395.232 466.671 397.12 464.676 399.048 462.308C402.906 457.572 406.997 451.257 411.123 444.198C419.373 430.079 427.843 412.833 434.916 398.988L433.135 398.078ZM387.582 469.163C381.622 470.499 375.699 469.308 371.216 467.744C368.983 466.965 367.129 466.1 365.835 465.432C365.188 465.098 364.683 464.813 364.342 464.614C364.171 464.514 364.042 464.436 363.957 464.384C363.914 464.357 363.882 464.337 363.862 464.325C363.852 464.318 363.845 464.314 363.84 464.311C363.838 464.309 363.836 464.308 363.836 464.308C363.835 464.308 363.835 464.308 363.835 464.308C363.835 464.308 363.835 464.308 363.835 464.308C363.835 464.308 363.835 464.308 363.294 465.149C362.753 465.99 362.753 465.99 362.754 465.99C362.754 465.99 362.754 465.99 362.754 465.991C362.755 465.991 362.756 465.992 362.757 465.992C362.759 465.994 362.762 465.996 362.766 465.998C362.773 466.002 362.783 466.009 362.796 466.017C362.823 466.034 362.86 466.057 362.909 466.087C363.007 466.147 363.149 466.233 363.333 466.341C363.701 466.556 364.237 466.857 364.917 467.209C366.276 467.911 368.218 468.816 370.558 469.633C375.222 471.26 381.552 472.564 388.019 471.115L387.582 469.163ZM363.294 465.149C363.339 464.15 363.339 464.15 363.339 464.15C363.339 464.15 363.339 464.15 363.339 464.15C363.34 464.15 363.34 464.15 363.339 464.15C363.339 464.15 363.338 464.15 363.336 464.15C363.333 464.149 363.328 464.149 363.32 464.149C363.304 464.148 363.278 464.146 363.243 464.144C363.174 464.139 363.069 464.131 362.932 464.119C362.657 464.093 362.257 464.048 361.765 463.972C360.779 463.819 359.435 463.541 358.004 463.044C355.114 462.039 352.035 460.202 350.627 456.868L348.784 457.646C350.512 461.739 354.227 463.848 357.347 464.933C358.921 465.48 360.387 465.782 361.459 465.948C361.996 466.032 362.436 466.081 362.746 466.11C362.901 466.124 363.023 466.134 363.109 466.139C363.151 466.142 363.185 466.144 363.209 466.146C363.22 466.146 363.23 466.147 363.237 466.147C363.24 466.147 363.243 466.147 363.245 466.147C363.246 466.148 363.247 466.148 363.248 466.148C363.248 466.148 363.249 466.148 363.249 466.148C363.249 466.148 363.25 466.148 363.294 465.149ZM350.626 456.867C346.511 447.141 349.681 436.016 355.066 427.988C357.75 423.985 360.93 420.841 363.902 419.079C366.923 417.288 369.42 417.08 371.074 418.263L372.238 416.637C369.595 414.745 366.126 415.436 362.882 417.359C359.59 419.311 356.208 422.695 353.405 426.874C347.814 435.209 344.306 447.063 348.785 457.647L350.626 456.867ZM371.656 417.45C372.565 417.869 372.565 417.868 372.565 417.868C372.565 417.867 372.566 417.867 372.566 417.866C372.567 417.864 372.568 417.861 372.57 417.858C372.573 417.851 372.578 417.84 372.585 417.825C372.598 417.797 372.618 417.754 372.644 417.697C372.696 417.584 372.774 417.415 372.876 417.195C373.079 416.755 373.378 416.109 373.761 415.286C374.526 413.639 375.625 411.282 376.959 408.442C379.627 402.762 383.236 395.15 387.001 387.424C390.766 379.695 394.683 371.86 397.968 365.73C399.611 362.664 401.089 360.036 402.307 358.066C402.916 357.08 403.453 356.271 403.906 355.659C404.378 355.023 404.704 354.676 404.889 354.538L403.696 352.933C403.256 353.26 402.782 353.817 402.3 354.468C401.799 355.143 401.23 356.004 400.606 357.014C399.356 359.036 397.855 361.705 396.205 364.786C392.902 370.95 388.972 378.812 385.203 386.548C381.433 394.285 377.819 401.906 375.148 407.592C373.813 410.435 372.713 412.794 371.947 414.443C371.564 415.268 371.264 415.915 371.06 416.356C370.959 416.576 370.881 416.745 370.828 416.859C370.802 416.916 370.782 416.959 370.768 416.988C370.762 417.002 370.757 417.013 370.753 417.021C370.752 417.024 370.75 417.027 370.75 417.029C370.749 417.03 370.749 417.03 370.749 417.031C370.748 417.031 370.748 417.032 371.656 417.45Z" fill="#191440" mask="url(#path-121-inside-1)"/>
<path d="M347.731 444.839C344.827 430.796 366.895 414.317 371.656 417.334C371.656 417.334 388.033 418.262 390.472 429.52" stroke="white" stroke-miterlimit="10" stroke-linecap="round" stroke-linejoin="round"/>
<path d="M407.777 447.857C417.417 430.913 434.025 398.533 434.025 398.533" stroke="white" stroke-miterlimit="10" stroke-linecap="round" stroke-linejoin="round"/>
<path d="M371.656 417.45C371.656 417.45 383.154 410.603 391.749 417.102" stroke="white" stroke-miterlimit="10" stroke-linecap="round" stroke-linejoin="round"/>
<path d="M375.489 409.094C375.489 409.094 381.877 395.168 388.265 382.402C394.769 369.519 409.403 350.718 415.558 349.79" stroke="white" stroke-miterlimit="10" stroke-linecap="round" stroke-linejoin="round"/>
<path d="M254.469 434.046C253.191 433.93 251.797 433.697 250.52 433.001C230.775 422.672 215.445 405.728 206.153 393.542C199.765 385.07 196.281 378.919 196.281 378.919L201.043 358.61C201.043 358.61 205.456 370.215 223.458 381.589C241.344 393.078 262.715 396.792 269.567 408.281C275.607 418.378 264.921 434.626 254.469 434.046Z" fill="white"/>
<path opacity="0.4" d="M254.469 434.046C254.236 432.653 253.888 431.26 253.307 429.752C249.126 419.423 224.039 398.765 224.039 398.765C218.116 398.533 211.496 396.096 206.153 393.426C199.765 384.954 196.281 378.804 196.281 378.804L201.043 358.494C201.043 358.494 205.456 370.099 223.458 381.473C241.344 392.962 262.715 396.676 269.567 408.165C275.607 418.378 264.921 434.626 254.469 434.046Z" fill="#5840BB"/>
<path d="M254.469 434.046C253.191 433.93 251.797 433.697 250.52 433.001C230.775 422.672 215.445 405.728 206.153 393.542C199.765 385.07 196.281 378.919 196.281 378.919L201.043 358.61C201.043 358.61 205.456 370.215 223.458 381.589C241.344 393.078 262.715 396.792 269.567 408.281C275.607 418.378 264.921 434.626 254.469 434.046Z" stroke="#191440" stroke-miterlimit="10" stroke-linecap="round" stroke-linejoin="round"/>
<path d="M209.754 377.643C209.754 377.643 207.315 388.436 200.811 385.999C197.326 384.722 190.59 374.277 189.312 369.055L209.754 377.643Z" fill="white" stroke="#191440" stroke-miterlimit="10" stroke-linecap="round" stroke-linejoin="round"/>
<path d="M181.299 311.027L186.525 308.358C186.525 308.358 201.391 308.474 210.683 316.018C219.045 322.865 223.342 333.542 223.342 333.542C223.342 333.542 255.978 315.554 289.311 325.882L302.9 401.55L240.415 405.612L201.391 368.591L181.299 311.027Z" fill="white" stroke="#191440" stroke-miterlimit="10" stroke-linecap="round" stroke-linejoin="round"/>
<path d="M307.197 404.568C307.197 404.568 299.88 404.336 290.008 404.684C275.142 405.148 254.701 406.773 245.409 412.227L244.945 412.111L236.35 409.094C236.35 409.094 236.234 408.978 236.234 408.862C234.608 406.541 221.949 388.204 203.714 380.777L177.931 308.938C177.931 308.938 204.643 310.099 219.277 334.238L226.594 336.908C226.594 336.908 270.148 324.026 294.654 328.668L307.197 404.568Z" fill="#FF885C"/>
<path opacity="0.3" d="M236.234 408.862C234.608 406.541 221.949 388.204 203.714 380.777L177.931 308.938C177.931 308.938 204.643 310.099 219.277 334.238L236.234 408.862Z" fill="#191440"/>
<path opacity="0.3" d="M290.124 404.568C275.258 405.032 254.817 406.657 245.526 412.111L245.061 411.995L227.988 339.345C227.988 339.345 242.041 336.211 246.339 337.836C246.222 337.836 274.677 358.842 290.124 404.568Z" fill="#191440"/>
<path d="M307.197 404.568C307.197 404.568 299.88 404.336 290.008 404.684C275.142 405.148 254.701 406.773 245.409 412.227L244.945 412.111L236.35 409.094C236.35 409.094 236.234 408.978 236.234 408.862C234.608 406.541 221.949 388.204 203.714 380.777L177.931 308.938C177.931 308.938 204.643 310.099 219.277 334.238L226.594 336.908C226.594 336.908 270.148 324.026 294.654 328.668L307.197 404.568Z" stroke="#191440" stroke-miterlimit="10" stroke-linecap="round" stroke-linejoin="round"/>
<path d="M226.594 336.792L243.435 406.541" stroke="#191440" stroke-miterlimit="10" stroke-linecap="round" stroke-linejoin="round"/>
<path d="M236.466 409.094L220.09 339.461" stroke="#191440" stroke-miterlimit="10" stroke-linecap="round" stroke-linejoin="round"/>
<path d="M194.887 378.92C191.171 377.875 183.622 355.476 187.106 345.844C187.106 345.844 191.171 338.765 192.913 338.3C195.468 337.488 206.037 337.72 205.456 339.577C204.295 343.639 196.281 343.639 196.281 343.639L193.61 348.397L193.726 351.066C193.726 351.066 197.559 348.281 198.952 348.397C199.649 348.397 203.366 350.254 206.386 351.763C208.941 353.155 210.451 353.852 209.87 355.012C208.012 359.074 199.998 356.173 199.998 356.173L196.978 360.699C196.978 360.699 199.882 361.163 201.159 361.395C202.553 361.511 212.89 368.475 212.657 369.403C211.38 372.769 201.391 369.171 201.391 369.171L199.649 370.68C199.649 370.68 206.966 372.537 207.779 372.885C208.941 373.349 213.47 376.715 213.354 377.179C212.773 380.196 206.618 377.991 206.618 377.991L201.275 377.759C201.275 377.759 200.23 378.803 198.372 379.268" fill="white"/>
<path d="M194.887 378.92C191.171 377.875 183.622 355.476 187.106 345.844C187.106 345.844 191.171 338.765 192.913 338.3C195.468 337.488 206.037 337.72 205.456 339.577C204.295 343.639 196.281 343.639 196.281 343.639L193.61 348.397L193.726 351.066C193.726 351.066 197.559 348.281 198.952 348.397C199.649 348.397 203.366 350.254 206.386 351.763C208.941 353.155 210.451 353.852 209.87 355.012C208.012 359.074 199.998 356.173 199.998 356.173L196.978 360.699C196.978 360.699 199.882 361.163 201.159 361.395C202.553 361.511 212.89 368.475 212.657 369.403C211.38 372.769 201.391 369.171 201.391 369.171L199.649 370.68C199.649 370.68 206.966 372.537 207.779 372.885C208.941 373.349 213.47 376.715 213.354 377.179C212.773 380.196 206.618 377.991 206.618 377.991L201.275 377.759C201.275 377.759 200.23 378.803 198.372 379.268" stroke="#191440" stroke-miterlimit="10" stroke-linecap="round" stroke-linejoin="round"/>
<path d="M193.726 350.95C193.726 350.95 190.242 353.852 189.313 354.664C188.383 355.476 188.616 358.262 188.616 358.262" stroke="#191440" stroke-miterlimit="10" stroke-linecap="round" stroke-linejoin="round"/>
<path d="M191.287 364.181C191.287 367.082 193.261 368.939 194.191 369.867C195.12 370.796 192.681 373.465 195.352 375.322" stroke="#191440" stroke-miterlimit="10" stroke-linecap="round" stroke-linejoin="round"/>
<path d="M363.294 457.605C355.861 459.578 347.963 446.696 338.091 432.537C331.587 423.253 324.386 413.388 316.14 407.005C315.443 406.541 314.863 405.96 314.166 405.612L319.044 381.241C329.148 386.463 335.42 394.935 345.873 403.639C362.713 417.682 377.696 426.27 381.761 432.421C385.826 438.572 375.954 454.239 363.294 457.605Z" fill="white"/>
<path opacity="0.4" d="M338.091 432.537C331.587 423.253 324.386 413.388 316.14 407.005C317.65 407.005 318.811 406.773 319.392 406.541C319.276 406.541 332.4 417.218 338.091 432.537Z" fill="#5840BB"/>
<path d="M363.294 457.605C355.861 459.578 347.963 446.696 338.091 432.537C331.587 423.253 324.386 413.388 316.14 407.005C315.443 406.541 314.863 405.96 314.166 405.612L319.044 381.241C329.148 386.463 335.42 394.935 345.873 403.639C362.713 417.682 377.696 426.27 381.761 432.421C385.826 438.572 375.954 454.239 363.294 457.605Z" stroke="#191440" stroke-miterlimit="10" stroke-linecap="round" stroke-linejoin="round"/>
<path d="M321.715 404.568C321.251 405.38 320.438 405.96 319.392 406.425C319.16 406.541 318.928 406.657 318.579 406.657C318.463 406.657 318.463 406.657 318.347 406.657C310.565 408.746 293.028 404.452 293.028 404.452C293.028 404.452 281.53 398.997 280.833 397.72C280.368 396.908 279.904 395.515 279.555 394.587C279.323 394.007 279.207 393.659 279.207 393.659C279.207 393.659 275.026 391.337 274.561 389.481C274.097 387.624 273.168 387.159 275.723 386.811C278.278 386.463 291.983 386.811 291.983 386.811L277.116 380.776C277.116 380.776 267.244 375.786 266.315 374.045C265.386 372.304 264.225 371.144 269.335 371.84C274.445 372.536 285.479 375.786 285.479 375.786L294.073 377.643L285.479 373.929C285.479 373.929 268.522 371.84 271.658 366.618C271.658 366.618 278.046 366.618 281.298 366.618C284.55 366.618 294.77 367.778 297.557 368.707C300.345 369.519 318.928 381.125 318.928 381.125" fill="white"/>
<path opacity="0.4" d="M318.347 406.773C310.566 408.862 293.028 404.568 293.028 404.568C293.028 404.568 281.53 399.113 280.833 397.837C280.368 397.024 279.904 395.632 279.555 394.703L293.609 396.328C293.609 396.328 291.867 399.113 293.609 402.131C295.119 404.916 313.005 407.817 318.347 406.773Z" fill="#5840BB"/>
<path d="M321.715 404.568C321.251 405.38 320.438 405.96 319.392 406.425C319.16 406.541 318.928 406.657 318.579 406.657C318.463 406.657 318.463 406.657 318.347 406.657C310.565 408.746 293.028 404.452 293.028 404.452C293.028 404.452 281.53 398.997 280.833 397.72C280.368 396.908 279.904 395.515 279.555 394.587C279.323 394.007 279.207 393.659 279.207 393.659C279.207 393.659 275.026 391.337 274.561 389.481C274.097 387.624 273.168 387.159 275.723 386.811C278.278 386.463 291.983 386.811 291.983 386.811L277.116 380.776C277.116 380.776 267.244 375.786 266.315 374.045C265.386 372.304 264.225 371.144 269.335 371.84C274.445 372.536 285.479 375.786 285.479 375.786L294.073 377.643L285.479 373.929C285.479 373.929 268.522 371.84 271.658 366.618C271.658 366.618 278.046 366.618 281.298 366.618C284.55 366.618 294.77 367.778 297.557 368.707C300.345 369.519 318.928 381.125 318.928 381.125" stroke="#191440" stroke-miterlimit="10" stroke-linecap="round" stroke-linejoin="round"/>
<path d="M279.207 393.775L296.164 396.328" stroke="#191440" stroke-miterlimit="10" stroke-linecap="round" stroke-linejoin="round"/>
<path d="M109.987 445.767L152.495 458.533L230.311 440.777C230.311 440.777 182.809 427.315 182.344 427.547C181.996 427.895 109.987 445.767 109.987 445.767Z" fill="#FFB901"/>
<path opacity="0.3" d="M109.987 445.767L152.495 458.533L230.311 440.777C230.311 440.777 182.809 427.315 182.344 427.547C181.996 427.895 109.987 445.767 109.987 445.767Z" fill="#191440"/>
<path d="M109.987 445.767L152.495 458.533L230.311 440.777C230.311 440.777 182.809 427.315 182.344 427.547C181.996 427.895 109.987 445.767 109.987 445.767Z" stroke="#191440" stroke-miterlimit="10" stroke-linecap="round" stroke-linejoin="round"/>
<path d="M110.684 430.796C107.664 431.028 106.967 441.705 110.103 445.767L178.86 431.493L184.318 418.494L110.684 430.796Z" fill="#FFB901"/>
<path opacity="0.3" d="M110.684 430.796C107.664 431.028 106.967 441.705 110.103 445.767L178.86 431.493L184.318 418.494L110.684 430.796Z" fill="#191440"/>
<path d="M110.684 430.796C107.664 431.028 106.967 441.705 110.103 445.767L178.86 431.493L184.318 418.494L110.684 430.796Z" stroke="#191440" stroke-miterlimit="10" stroke-linecap="round" stroke-linejoin="round"/>
<path d="M227.059 430.68C227.059 430.68 226.013 436.367 226.71 439.849L152.495 456.677L113.355 445.187C113.355 445.187 109.29 437.992 112.774 432.421L184.202 420.351L227.059 430.68Z" fill="white" stroke="#191440" stroke-miterlimit="10" stroke-linecap="round" stroke-linejoin="round"/>
<path d="M110.684 430.796L184.202 418.494L229.962 430.1L153.076 445.303L110.684 430.796Z" fill="#FFB901" stroke="#191440" stroke-miterlimit="10" stroke-linecap="round" stroke-linejoin="round"/>
<path d="M113.239 437.643L152.147 449.249L215.909 436.367" stroke="#191440" stroke-miterlimit="10" stroke-linecap="round" stroke-linejoin="round"/>
<path d="M226.478 437.644L157.954 452.15" stroke="#191440" stroke-miterlimit="10" stroke-linecap="round" stroke-linejoin="round"/>
<path d="M114.168 442.17C114.749 442.286 143.552 451.106 143.552 451.106" stroke="#191440" stroke-miterlimit="10" stroke-linecap="round" stroke-linejoin="round"/>
<path d="M220.903 434.974L226.362 434.046" stroke="#191440" stroke-miterlimit="10" stroke-linecap="round" stroke-linejoin="round"/>
<path d="M150.869 453.311L148.082 452.615" stroke="#191440" stroke-miterlimit="10" stroke-linecap="round" stroke-linejoin="round"/>
<path d="M112.14 441.127C111.582 439.039 111.446 436.242 112.972 433.207C113.048 433.312 113.13 433.431 113.217 433.563C113.615 434.168 114.1 435.048 114.446 436.141C115.092 438.178 115.262 440.977 113.434 444.172C113.365 444.062 113.291 443.936 113.213 443.796C112.861 443.164 112.439 442.248 112.14 441.127Z" fill="#191440" stroke="#191440"/>
<path opacity="0.3" d="M112.891 432.305C112.891 432.305 118.117 437.876 113.471 445.071C113.355 445.071 108.942 439.152 112.891 432.305Z" fill="white"/>
<path d="M112.891 432.305C112.891 432.305 118.117 437.876 113.471 445.071C113.355 445.071 108.942 439.152 112.891 432.305Z" stroke="#191440" stroke-miterlimit="10" stroke-linecap="round" stroke-linejoin="round"/>
<path d="M271.774 449.249L346.105 452.266L338.788 477.799L247.5 474.317L271.774 449.249Z" fill="white"/>
<path opacity="0.4" d="M271.774 449.249L346.105 452.266L338.788 477.799L247.5 474.317L271.774 449.249Z" fill="#FF5F73"/>
<path d="M271.774 449.249L346.105 452.266L338.788 477.799L247.5 474.317L271.774 449.249Z" stroke="#191440" stroke-miterlimit="10" stroke-linecap="round" stroke-linejoin="round"/>
</g>
<defs>
<clipPath id="clip0">
<rect width="495" height="500" fill="white"/>
</clipPath>
</defs>
</svg>
